<svg xmlns="http://www.w3.org/2000/svg" viewBox="0 0 67 59.55"><defs><style>.cls-1{fill:#f3f3c9;}</style></defs><g id="Warstwa_2"><g id="Koszyk"><path class="cls-1" d="M65.46,0l-.14,0H58V.1a7.17,7.17,0,0,0-3.25,1.25l-2,2.91L49.06,9.81H0V12.2L3.82,29.53l1.51,6.85a13.77,13.77,0,0,0,12,6.59H42.64a8,8,0,0,1,0,1,7.8,7.8,0,0,1-.42,2,3.94,3.94,0,0,1-3.77,3H12.06v.51a5.27,5.27,0,1,0,7,2.5H32.92a5.07,5.07,0,0,0-.52,2.26,5.28,5.28,0,1,0,9.05-3.68v-.12c1.77-.21,3.21-1.94,3.63-4.23a0,0,0,0,0,0,0v0a5.9,5.9,0,0,1,.12-1V40l5.28-27.12L52,11l.72-1.14,1.23-2,.32-.52a7.7,7.7,0,0,1,6-4.23h4.83a1.39,1.39,0,0,0,.49.07A1.51,1.51,0,0,0,67,1.49,1.52,1.52,0,0,0,65.46,0ZM14.32,56.53a2.26,2.26,0,1,1,2.26-2.26A2.26,2.26,0,0,1,14.32,56.53Zm23.36,0a2.26,2.26,0,1,1,2.26-2.26A2.26,2.26,0,0,1,37.68,56.53Zm9.26-41.31L42.43,36.81l-.77,2.39h-23A12,12,0,0,1,8.36,34L7.08,28.52,3.81,14.73v-1.9H47.47Zm-1.73,30s0,.06,0,.19c0-.11,0-.21,0-.32Z"/><path class="cls-1" d="M41.45,22.62V18c0-.55-.34-1-.76-1s-.75.46-.75,1v4.59h-6V18c0-.55-.34-1-.75-1s-.76.46-.76,1v4.59h-6V18.28c0-.55-.33-1-.75-1s-.75.46-.75,1v4.34H19.59V18.31c0-.55-.34-1-.75-1s-.75.46-.75,1v4.31h-6V18.1a.76.76,0,0,0-1.51,0V30.16a.76.76,0,0,0,1.51,0v-6h6v6H13.56a.76.76,0,0,0,0,1.51h4.53v2.75c0,.56.33,1,.75,1s.75-.45.75-1V31.67h5.28V34.4c0,.56.34,1,.75,1s.75-.45.75-1V31.67h6v2.48a.91.91,0,0,0,.76,1c.41,0,.75-.45.75-1V31.67h6v2.48c0,.55.34,1,.75,1a.91.91,0,0,0,.76-1v-10a.76.76,0,0,0,0-1.51ZM19.59,30.16v-6h5.28v6Zm6.78,0v-6h6v6Zm13.57,0h-6v-6h6Z"/></g></g></svg>