<svg xmlns="http://www.w3.org/2000/svg" viewBox="0 0 57.29 55.89"><defs><style>.cls-1{fill:#f3f3c9;}</style></defs><g id="Warstwa_2" data-name="Warstwa 2"><g id="Ludzik"><path class="cls-1" d="M14.26,20.68c-.59-2.05-.21-4,.82-4.51a19,19,0,0,1-.14-2.31c0-.4,0-.79,0-1.16a7.5,7.5,0,0,1,0-.82C14.94,5.32,20.7,0,27.8,0S40.67,5.32,40.67,11.88a11,11,0,0,1-.15,1.81h0c.07.72.12,1.47.13,2.26,1,.37,1.41,2.4,1,4.69a6.07,6.07,0,0,1-2,3.85c-.14.43-.29.83-.44,1.18-1.39,5.76-5.75,10-10.92,10-5.64,0-10.33-5-11.23-11.57C16,23.94,14.81,22.57,14.26,20.68Z"/><path class="cls-1" d="M57.29,45.08V55.89H0V45.08L18.49,33.71a11.88,11.88,0,0,0,19.22,0Z"/></g></g></svg>